<svg width="460" height="460" viewBox="0 0 460 460" fill="none" xmlns="http://www.w3.org/2000/svg">
<rect width="460" height="460" fill="black"/>
<path d="M194.168 273C191.778 273 189.944 271.976 188.664 269.928C187.384 267.88 187.256 265.704 188.28 263.4L224.248 177.512C225.528 174.525 227.618 173.032 230.52 173.032C233.592 173.032 235.682 174.525 236.792 177.512L272.888 263.656C273.826 266.045 273.656 268.221 272.376 270.184C271.181 272.061 269.346 273 266.872 273C265.592 273 264.354 272.659 263.16 271.976C262.05 271.208 261.24 270.184 260.728 268.904L228.984 190.056H232.568L200.312 268.904C199.714 270.269 198.818 271.293 197.624 271.976C196.514 272.659 195.362 273 194.168 273ZM200.952 250.984L206.072 239.976H256.248L261.368 250.984H200.952Z" fill="url(#paint0_linear_2_8)"/>
<path d="M230.016 196L262 273H197L230.016 196Z" fill="black"/>
<defs>
<linearGradient id="paint0_linear_2_8" x1="40" y1="229.049" x2="420.671" y2="229.049" gradientUnits="userSpaceOnUse">
<stop stop-color="#CCCCCC"/>
<stop offset="1" stop-color="#AC9A38"/>
</linearGradient>
</defs>
</svg>
